<svg width="23" height="22" viewBox="0 0 23 22" fill="none" xmlns="http://www.w3.org/2000/svg">
<rect x="5" y="4" width="13" height="14" fill="white"/>
<path d="M20.8438 0H2.15625C0.96582 0 0 1.0558 0 2.35714V19.6429C0 20.9442 0.96582 22 2.15625 22H20.8438C22.0342 22 23 20.9442 23 19.6429V2.35714C23 1.0558 22.0342 0 20.8438 0ZM17.0883 14.2656C17.3039 14.5013 17.3039 14.8844 17.0883 15.1201L15.2689 17.1089C15.0533 17.3446 14.7029 17.3446 14.4873 17.1089L11.5 13.8138L8.5127 17.1089C8.29707 17.3446 7.94668 17.3446 7.73105 17.1089L5.91172 15.1201C5.69609 14.8844 5.69609 14.5013 5.91172 14.2656L8.92598 11L5.91172 7.73438C5.69609 7.49866 5.69609 7.11563 5.91172 6.87991L7.73105 4.89107C7.94668 4.65536 8.29707 4.65536 8.5127 4.89107L11.5 8.18616L14.4873 4.89107C14.7029 4.65536 15.0533 4.65536 15.2689 4.89107L17.0883 6.87991C17.3039 7.11563 17.3039 7.49866 17.0883 7.73438L14.074 11L17.0883 14.2656Z" fill="#F41213"/>
</svg>
